<svg xmlns="http://www.w3.org/2000/svg" viewBox="0 0 760 600" width="760" height="600" role="img" aria-label="Completed project photograph 1">
  <defs>
    <linearGradient id="g" x1="0" y1="0" x2="1" y2="1">
      <stop offset="0%" stop-color="#1b4a3b"/>
      <stop offset="55%" stop-color="#123a2e"/>
      <stop offset="100%" stop-color="#2f6b55"/>
    </linearGradient>
    <radialGradient id="glow" cx="0.55" cy="0.45" r="0.75">
      <stop offset="0%" stop-color="#c6ee3e" stop-opacity="0.3"/>
      <stop offset="100%" stop-color="#c6ee3e" stop-opacity="0"/>
    </radialGradient>
    <filter id="grain"><feTurbulence type="fractalNoise" baseFrequency="0.9" numOctaves="3"/><feColorMatrix type="saturate" values="0"/></filter>
    <clipPath id="clip"><rect width="760" height="600"/></clipPath>
  </defs>
  <g clip-path="url(#clip)">
    <rect width="760" height="600" fill="url(#g)"/>
    <rect width="760" height="600" fill="url(#glow)"/>
    <g transform="rotate(-4.6 380 300)"><path d="M-76.0,496.3 L226.8,496.3 L226.8,265.2 L578.2,265.2 L578.2,161.9 L865.7,161.9 L865.7,241.7 L1230.2,241.7 L1230.2,343.8 L1516.3,343.8 L1516.3,230.1 L836.0,230.1" fill="none" stroke="#f6f4ec" stroke-width="6.348803102038801" stroke-linecap="round" stroke-linejoin="round" opacity="0.09"/><path d="M-76.0,490.4 L206.9,490.4 L206.9,239.0 L554.5,239.0 L554.5,469.9 L860.2,469.9 L860.2,483.0 L836.0,483.0" fill="none" stroke="#c6ee3e" stroke-width="5.176600886508822" stroke-linecap="round" stroke-linejoin="round" opacity="0.13"/><path d="M-76.0,417.0 L235.4,417.0 L235.4,338.8 L560.0,338.8 L560.0,141.2 L869.2,141.2 L869.2,476.4 L1154.0,476.4 L1154.0,156.3 L1320.6,156.3 L1320.6,359.9 L836.0,359.9" fill="none" stroke="#f6f4ec" stroke-width="4.8179505409207195" stroke-linecap="round" stroke-linejoin="round" opacity="0.17"/></g>
    <circle cx="421" cy="267" r="124.9" fill="none" stroke="#c6ee3e" stroke-width="2.3" opacity="0.17"/><circle cx="421" cy="267" r="186.0" fill="none" stroke="#c6ee3e" stroke-width="2.5" opacity="0.14"/><circle cx="421" cy="267" r="247.1" fill="none" stroke="#c6ee3e" stroke-width="2.5" opacity="0.15"/><circle cx="421" cy="267" r="308.2" fill="none" stroke="#c6ee3e" stroke-width="2.4" opacity="0.23"/>
    <circle cx="498" cy="72" r="2.0" fill="#c6ee3e" opacity="0.22"/><circle cx="640" cy="396" r="1.7" fill="#c6ee3e" opacity="0.22"/><circle cx="342" cy="235" r="2.8" fill="#c6ee3e" opacity="0.16"/><circle cx="500" cy="445" r="1.9" fill="#c6ee3e" opacity="0.21"/><circle cx="84" cy="251" r="2.7" fill="#c6ee3e" opacity="0.08"/><circle cx="675" cy="250" r="2.6" fill="#c6ee3e" opacity="0.24"/><circle cx="365" cy="464" r="2.8" fill="#c6ee3e" opacity="0.24"/><circle cx="279" cy="526" r="1.1" fill="#c6ee3e" opacity="0.22"/><circle cx="446" cy="558" r="1.5" fill="#c6ee3e" opacity="0.12"/><circle cx="213" cy="568" r="0.8" fill="#c6ee3e" opacity="0.17"/><circle cx="380" cy="281" r="0.9" fill="#c6ee3e" opacity="0.20"/><circle cx="2" cy="74" r="2.1" fill="#c6ee3e" opacity="0.21"/><circle cx="45" cy="359" r="2.2" fill="#c6ee3e" opacity="0.13"/><circle cx="727" cy="501" r="1.6" fill="#c6ee3e" opacity="0.18"/><circle cx="687" cy="436" r="1.6" fill="#c6ee3e" opacity="0.26"/><circle cx="428" cy="598" r="2.1" fill="#c6ee3e" opacity="0.28"/><circle cx="241" cy="36" r="1.7" fill="#c6ee3e" opacity="0.21"/><circle cx="728" cy="215" r="2.2" fill="#c6ee3e" opacity="0.17"/><circle cx="544" cy="552" r="1.7" fill="#c6ee3e" opacity="0.16"/><circle cx="375" cy="404" r="1.9" fill="#c6ee3e" opacity="0.22"/><circle cx="337" cy="442" r="1.6" fill="#c6ee3e" opacity="0.15"/><circle cx="678" cy="172" r="2.2" fill="#c6ee3e" opacity="0.13"/><circle cx="489" cy="261" r="2.1" fill="#c6ee3e" opacity="0.15"/><circle cx="481" cy="364" r="2.5" fill="#c6ee3e" opacity="0.21"/><circle cx="746" cy="566" r="0.8" fill="#c6ee3e" opacity="0.24"/><circle cx="298" cy="455" r="2.4" fill="#c6ee3e" opacity="0.27"/>
    <rect width="760" height="600" filter="url(#grain)" opacity="0.05"/>
  </g>
</svg>